<svg width="20" height="20" viewBox="0 0 20 20" fill="none" xmlns="http://www.w3.org/2000/svg">
<g id="Icon_info">
<path id="Vector" fill-rule="evenodd" clip-rule="evenodd" d="M1.04167 9.99935C1.04167 5.0518 5.05245 1.04102 10 1.04102C14.9476 1.04102 18.9583 5.0518 18.9583 9.99935C18.9583 14.9469 14.9476 18.9577 10 18.9577C5.05245 18.9577 1.04167 14.9469 1.04167 9.99935ZM10 8.95768C10.3452 8.95768 10.625 9.23752 10.625 9.58268V13.7493C10.625 14.0945 10.3452 14.3743 10 14.3743C9.65484 14.3743 9.375 14.0945 9.375 13.7493V9.58268C9.375 9.23752 9.65484 8.95768 10 8.95768ZM10.4729 6.66664C10.7038 6.41007 10.683 6.01489 10.4264 5.78398C10.1698 5.55307 9.77467 5.57387 9.54376 5.83044L9.53542 5.8397C9.3045 6.09627 9.32534 6.49145 9.58192 6.72236C9.8385 6.95327 10.2337 6.93247 10.4646 6.6759L10.4729 6.66664Z" fill="#AB5E34"/>
</g>
</svg>
