<svg width="270" height="40" viewBox="0 0 98.24 17.299" fill="none" xmlns="http://www.w3.org/2000/svg"><path d="M14.55 12.37q1.27.58 2.81.58.69 0 1.35-.12 1.07.7 2.2 1.31 2.06 1.11 4.31 1.89 3.6 1.26 7.02 1.26c.85 0 1.66-.08 2.44-.26.02-.01.02-.05 0-.12-.02-.06-.04-.09-.09-.08-.33.07-.71.1-1.16.1-2.49 0-4.86-.52-7.11-1.56q-3.35-1.54-5.74-3.16l.26-.14a6.772 6.772 0 002.58-2.4q.44-.69.68-1.46.28-.89.28-1.88 0-.75-.17-1.47-.19-.84-.61-1.63A5.956 5.956 0 0021.4.89c-.96-.6-2.08-.9-3.34-.9q-.32 0-.63.03-1.38.11-2.71.71-.72.33-1.33.81-.76.59-1.33 1.41-.15.21-.28.43-.76 1.33-.76 3.09 0 1.2.35 2.27.17.51.43.99.39.73.93 1.31.57.6 1.31 1.05.25.15.51.28zM56.29.17c-.65-.12-1.29-.18-1.9-.18-1.28 0-2.49.28-3.62.82-1.12.54-2.03 1.29-2.72 2.26q-.36.52-.6 1.09-.42 1.02-.42 2.21 0 .64.11 1.24.18.98.65 1.9c.51 1 1.3 1.83 2.38 2.48 1.08.64 2.43.96 4.04.96 1.28 0 2.53-.24 3.76-.72q.18-.08.22-.14c.04-.05.07-.16.1-.32l.28-2.4c0-.01-.02-.02-.06-.04-.03-.02-.05-.04-.08-.04-.07 0-.1.02-.1.06q-.8 2.13-2.3 2.88-.81.4-1.82.4-.61 0-1.17-.15-.82-.21-1.55-.75c-.81-.61-1.46-1.44-1.94-2.48q-.03-.05-.05-.11-.65-1.52-.65-3.31c0-1.06.19-2 .56-2.82.39-.81.94-1.44 1.66-1.88.72-.45 1.57-.68 2.54-.68q1.58 0 2.72.71.06.04.12.07.21.14.4.3.87.74 1.3 2c.01.06.05.08.12.06.07-.01.1-.04.1-.08l-.22-2.4a.937.937 0 00-.1-.3.45.45 0 00-.2-.18c-.39-.2-.91-.35-1.56-.46zm7.66 12.2q1.26.58 2.8.58c1.25 0 2.41-.29 3.48-.88a6.772 6.772 0 002.58-2.4c.64-1.01.96-2.12.96-3.34 0-1.09-.26-2.12-.78-3.1a5.956 5.956 0 00-2.2-2.34c-.96-.6-2.07-.9-3.34-.9q-.32 0-.63.03-1.37.11-2.71.71c-1.08.5-1.97 1.24-2.66 2.22-.69.98-1.04 2.15-1.04 3.52 0 1.18.26 2.26.78 3.26.53.99 1.28 1.78 2.24 2.36q.25.15.52.28zM83.12.83C82.51.38 81.64.15 80.5.15c-.38 0-.8.02-1.24.06-.16.02-.34.03-.56.04-.21.02-.44.02-.68.02-.34 0-.81-.01-1.4-.04l-1-.02c-.02 0-.04.04-.04.12 0 .08.02.12.04.12.48 0 .83.04 1.04.12.23.07.38.2.46.38q.12.28.12.88v9.26c0 .4-.04.7-.12.9-.08.19-.23.32-.46.38-.22.07-.58.1-1.06.1-.04 0-.06.04-.06.12 0 .08.02.12.06.12.43 0 .77 0 1.02-.02l1.4-.02 1.44.02c.24.02.57.02.98.02.04 0 .06-.04.06-.12 0-.08-.02-.12-.06-.12q-.72 0-1.06-.1a.649.649 0 01-.44-.38c-.08-.2-.12-.5-.12-.9V6.37c.38.03.7.04.98.04.31 0 .6-.03.89-.08 1.24 1.97 2.29 3.52 3.15 4.64q1.34 1.74 1.84 1.74h2.86c.04 0 .06-.04.06-.12 0-.08-.02-.12-.06-.12-.56 0-1.14-.21-1.74-.64-.6-.44-1.28-1.14-2.06-2.1-.74-.94-1.65-2.24-2.74-3.9.6-.34 1.08-.78 1.44-1.32.4-.57.6-1.18.6-1.84 0-.78-.3-1.4-.92-1.84zM0 12.59c0 .08.02.12.06.12h8.52c.12 0 .2-.02.24-.06.04-.05.06-.13.06-.24q0-1.26.2-2.7c0-.01-.02-.02-.06-.04-.03-.02-.06-.04-.1-.04q-.07 0-.08.03v.01c-.19.83-.54 1.47-1.04 1.92-.5.44-1.12.66-1.86.66H4.62q-.82 0-1.1-.26c-.18-.17-.26-.5-.26-.98V6.43h2.16q1.06 0 1.54.42c.33.27.5.69.5 1.26v.01q.01.03.12.03c.08 0 .12-.01.12-.04 0-.24-.02-.57-.04-1l-.02-.9.02-1.68h-.01q-.01-.04-.11-.04c-.07 0-.1.02-.1.04q0 .56-.27.9-.09.11-.21.2c-.32.23-.82.34-1.5.34h-2.2V1.91c0-.48.1-.8.3-.98.2-.17.59-.26 1.18-.26h1.02q.87 0 1.46.41.11.08.22.17.02.03.04.05.6.57.74 1.63c.01.04.05.06.12.06q.1-.01.11-.06.01-.01.01-.02L8.42.39q0-.08-.04-.12-.05-.06-.16-.06H.06C.02.21 0 .25 0 .33q0 .1.03.12h.03q.72 0 1.04.12.23.07.36.23.06.07.1.15.12.28.12.88v9.26c0 .4-.04.7-.12.9-.08.19-.24.32-.46.38-.22.07-.56.1-1.04.1q-.02 0-.03.01-.03.02-.03.11zM36.33.99c.3.35.46.86.46 1.52v5.68c0 1.31-.34 2.33-1 3.06-.66.72-1.56 1.08-2.72 1.08-1.24 0-2.21-.4-2.9-1.2q-1.02-1.22-1.02-3.58V1.87c0-.4.04-.69.12-.88.08-.2.22-.34.44-.42.22-.08.57-.12 1.04-.12.04 0 .06-.04.06-.12 0-.08-.02-.12-.06-.12l-.98.02c-.56.03-1.04.04-1.42.04-.35 0-.82-.01-1.4-.04l-1-.02c-.04 0-.06.04-.06.12 0 .08.02.12.06.12q.72 0 1.04.12.24.07.37.23.05.07.09.15c.08.19.12.48.12.88v6.42c0 .96.2 1.8.62 2.52q.25.44.6.8.48.5 1.14.84c.74.38 1.61.56 2.6.56q1.73 0 2.91-.8.3-.21.57-.48c.88-.85 1.32-2.02 1.32-3.52V2.51c0-.68.13-1.19.4-1.54q.11-.13.25-.24.38-.28.97-.28c.02 0 .04-.04.04-.12 0-.08-.02-.12-.04-.12l-.86.02c-.46.03-.8.04-1.04.04-.28 0-.66-.01-1.14-.04l-.9-.02c-.04 0-.06.04-.06.12q0 .1.04.12h.02c.57 0 1.01.18 1.32.54zm7.28 11c-.07-.18-.1-.48-.1-.9V1.87c0-.4.04-.69.12-.88.08-.2.23-.34.44-.42.23-.08.58-.12 1.06-.12.03 0 .04-.04.04-.12 0-.08-.01-.12-.04-.12l-.98.02c-.59.03-1.07.04-1.46.04-.35 0-.81-.01-1.4-.04L40.25.21c-.03 0-.04.04-.04.12 0 .08.01.12.04.12q.72 0 1.06.12c.23.07.38.2.46.38.09.19.14.48.14.88v9.26c0 .4-.05.7-.14.9-.08.19-.23.32-.46.38-.23.07-.58.1-1.06.1-.03 0-.04.04-.04.12 0 .08.01.12.04.12.44 0 .79 0 1.04-.02l1.4-.02 1.44.02c.24.02.57.02 1 .02.03 0 .04-.04.04-.12 0-.08-.01-.12-.04-.12-.49 0-.85-.03-1.08-.1a.649.649 0 01-.44-.38zm45.55.6c0 .08.02.12.06.12h8.52q.18 0 .24-.06c.04-.05.06-.13.06-.24q0-1.26.2-2.7c0-.01-.02-.02-.06-.04-.03-.02-.06-.04-.1-.04-.06 0-.08.02-.08.04-.19.83-.54 1.47-1.04 1.92-.5.44-1.12.66-1.86.66h-1.32c-.55 0-.92-.08-1.1-.26-.18-.17-.26-.5-.26-.98V6.43h2.16c.7 0 1.22.14 1.54.42.33.27.5.69.5 1.26v.01q.01.03.12.03c.08 0 .12-.01.12-.04 0-.24-.02-.57-.04-1l-.02-.9.02-1.68h-.01q-.01-.04-.11-.04-.09 0-.1.03v.01c0 .5-.16.86-.48 1.1-.32.23-.82.34-1.5.34h-2.2V1.91c0-.48.1-.8.3-.98.2-.17.59-.26 1.18-.26h1.02c.69 0 1.25.2 1.68.58q.02.03.04.05.6.57.74 1.63c.01.04.05.06.12.06q.1-.01.11-.06.01-.01.01-.02L97.58.39q0-.08-.04-.12-.05-.06-.16-.06h-8.16c-.04 0-.06.04-.06.12 0 .08.02.12.06.12.48 0 .82.04 1.04.12.22.07.38.2.46.38q.12.28.12.88v9.26c0 .4-.04.7-.12.9-.08.19-.24.32-.46.38-.22.07-.56.1-1.04.1-.04 0-.06.04-.06.12zm-68.8-.74c-.68.44-1.45.66-2.3.66q-.85 0-1.59-.27-.6-.21-1.13-.61c-.79-.58-1.4-1.39-1.84-2.42q-.66-1.54-.66-3.44 0-2.48 1.16-3.88.38-.47.87-.78.97-.64 2.37-.64c1.06 0 2 .28 2.8.82.81.55 1.43 1.31 1.86 2.28.44.98.66 2.08.66 3.32 0 1.18-.2 2.19-.6 3.04-.39.84-.92 1.48-1.6 1.92zm49.39 0c-.68.44-1.45.66-2.3.66-1.01 0-1.92-.29-2.72-.88-.79-.58-1.4-1.39-1.84-2.42-.44-1.02-.66-2.17-.66-3.44 0-1.65.39-2.94 1.16-3.88.77-.94 1.85-1.42 3.24-1.42 1.07 0 2 .28 2.8.82.81.55 1.43 1.31 1.86 2.28q.66 1.46.66 3.32c0 1.18-.2 2.19-.6 3.04-.39.84-.92 1.48-1.6 1.92zm12.03-10.7c.4.44.6 1.19.6 2.24 0 .94-.18 1.6-.56 1.98q-.54.56-1.82.56-.42 0-1.18-.08V1.87c0-.4.04-.69.12-.88.08-.2.21-.33.38-.4.19-.06.46-.1.8-.1.71 0 1.26.22 1.66.66z" fill="#F5F1ED" fill-rule="evenodd"/></svg>