<svg width="82" height="82" viewBox="0 0 82 82" fill="none" xmlns="http://www.w3.org/2000/svg"><mask id="a" style="mask-type:luminance" maskUnits="userSpaceOnUse" x="6" y="6" width="69" height="69"><path fill-rule="evenodd" clip-rule="evenodd" d="M6.834 6.834h68v68h-68v-68z" fill="#fff"/></mask><g mask="url(#a)"><path fill-rule="evenodd" clip-rule="evenodd" d="M26.139 11.958c-8.614 0-14.18 5.9-14.18 15.03v27.853c0 9.133 5.566 15.03 14.18 15.03h29.554c8.634 0 14.213-5.897 14.213-15.03V26.988c0-9.13-5.58-15.03-14.213-15.03H26.139zm29.554 63.038H26.139c-11.549 0-19.305-8.101-19.305-20.155V26.988c0-12.054 7.756-20.155 19.305-20.155h29.554c11.565 0 19.338 8.101 19.338 20.155v27.853c0 12.054-7.773 20.155-19.338 20.155z" fill="#61646B"/></g><path fill-rule="evenodd" clip-rule="evenodd" d="M18.045 58.7a2.543 2.543 0 01-1.763-.704 2.556 2.556 0 01-.095-3.619l5.22-5.51c2.765-2.936 7.428-3.08 10.377-.312l3.273 3.321c.912.923 2.395.94 3.31.038.346-.407 7.787-9.444 7.787-9.444a8.293 8.293 0 015.628-2.993c2.22-.194 4.376.451 6.095 1.862.147.12.28.236 7.783 7.94a2.56 2.56 0 11-3.67 3.574s-7-7.185-7.499-7.67c-.53-.434-1.38-.687-2.217-.605a3.187 3.187 0 00-2.16 1.152c-7.94 9.631-8.036 9.724-8.166 9.85-2.931 2.877-7.663 2.83-10.543-.11 0 0-3.178-3.225-3.233-3.29-.789-.73-2.197-.683-3.04.209L19.904 57.9c-.506.533-1.182.8-1.859.8zm11.192-30.927a3.432 3.432 0 103.437 3.43 3.44 3.44 0 00-3.437-3.43m.003 11.99c-4.718 0-8.555-3.84-8.555-8.56 0-4.718 3.837-8.555 8.555-8.555 4.722.004 8.56 3.844 8.56 8.556 0 4.718-3.841 8.559-8.56 8.559" fill="#61646B"/></svg>