<svg version="1.0" xmlns="http://www.w3.org/2000/svg" width="2666.667" height="545.333" viewBox="0 0 2000 409"><path d="M154 10.5c-1.7.9-9.1 12.6-22 34.7-10.7 18.3-35.6 60.7-55.3 94.3C57 173 40.6 201.9 40.3 203.7c-.5 2.8 3.7 10.5 35.9 65.5 20.1 34.3 44.7 76.5 54.8 93.8 10 17.3 19.5 32.7 21.1 34.3l3 2.7 112.9-.2 113-.3 2.8-3c1.6-1.7 15-23.7 29.7-49 14.8-25.3 38.5-65.7 52.7-89.8 14.2-24.1 26.5-45.1 27.3-46.7 3.5-6.7 2.7-8.5-16.1-40.5-9.7-16.5-34.5-58.8-55.1-94-20.5-35.2-38.3-64.8-39.4-65.8-2-1.6-8.9-1.7-114.3-1.7-93.8.1-112.5.3-114.6 1.5zm200.4 10.4c-2.5 2.4-158.7 51.3-162.6 50.9-3-.3-3.5-1.1-14.9-24.8-6.5-13.5-11.8-25.1-11.8-25.8-.1-.9 19.6-1.2 95.1-1.2 55.8 0 94.8.4 94.2.9zm22 8.8c.9 3.1 30.6 164.3 31.2 169.9.4 3 .4 5.4.2 5.4-.3 0-41.2-24.2-90.9-53.8-49.7-29.6-96.2-57.3-103.2-61.4-7-4.2-12.4-7.8-12-8.1.4-.2 10.3-3.4 21.8-7.1 11.6-3.6 49.4-15.6 84-26.6 34.7-10.9 64.2-19.9 65.7-19.9 1.7-.1 2.9.5 3.2 1.6zm-212.9 15c14.7 30.4 16 33.4 14.9 35.1C176.8 82.3 65 186 63.8 186c-.5 0-.8-.4-.6-.9 1.1-3 91.3-156.1 92-156.1.4 0 4.2 7.1 8.3 15.7zM437.3 125c23.5 40.3 42.6 73.4 42.5 73.5-1.1.9-52 11.5-55.1 11.5-1.5 0-3-.6-3.3-1.3-1.6-4.1-28.9-157.7-28-157.4.6.2 20.4 33.3 43.9 73.7zm-137.5 29c57.8 34.4 105 62.8 104.9 63.2-.2.7-210.3 116.8-211.3 116.8-.2 0-.4-54.7-.4-121.6 0-67.7.4-121.4.9-121.2.4.1 48.1 28.4 105.9 62.8zM180 211.7v117.8l-60.3-60.9c-33.1-33.5-60.2-61.2-60.2-61.6 0-.5 119.4-112.7 120.3-112.9.1-.1.2 52.9.2 117.6zm299.7-.3c-.8 2.1-90.7 155.9-91.8 157-2 2.1-.4-5.1 12-56.5 20.5-84.2 20.8-85.4 22-87.7 1.4-2.5 2.6-2.9 32-9.2 25.5-5.4 26.5-5.6 25.8-3.6zm-72.3 20.8c-1.1 5.7-34.6 145.1-35.5 147.5-.5 1.5-1.7 2.3-3.2 2.3-1.9 0-63.7-14.7-152-36.1-7-1.7-12.7-3.4-12.7-3.8 0-.8-6 2.6 79-44.3C398.2 234.1 407.5 229 407.7 229c.1 0 0 1.5-.3 3.2zm-282 58.4c28.1 28.4 51.4 52.5 51.8 53.5.5 1.2-.3 3.6-2 6.8-4.5 8.1-18.7 31-19.3 31.1-.4 0-77.3-130.7-82.7-140.6-1-1.9-1-2.4 0-2.4.6 0 24.2 23.2 52.2 51.6zm144.4 79c39.4 9.7 72.3 17.9 73.2 18.4.9.6-34 1-87.7 1-49.1 0-89.3-.2-89.3-.5 0-1.5 21.5-34.8 23.4-36.1 1.4-1 3.2-1.3 5.5-.9 1.9.4 35.6 8.5 74.9 18.1zM1775.7 10.8c-.9.9-6.1 16.1-11.7 33.7-8.4 26.3-10.7 32.5-13.1 35l-2.9 3-35.7.5-35.6.5-1.9 2.6c-3.8 5.1-2.7 6.2 27.1 28.3 27.2 20 30.1 22.8 30.1 27.9 0 1.2-4.5 16.3-10 33.5s-10 32.5-10 34.1c0 3.4 2.8 6.1 6.2 6.1 1.7 0 7.3-3.4 16.2-10 7.5-5.5 19.6-14.4 27-19.9 7.4-5.4 14.6-10.1 16.1-10.5 1.5-.4 4.2-.2 6 .4 1.8.6 15.1 9.8 29.6 20.5 29.2 21.7 31.2 22.6 34.8 15.7 1-2-.2-6.7-9.4-35.7-9.7-30.3-10.6-33.7-9.6-36.7.7-1.8 1.7-4 2.4-4.8.7-.9 13.2-10.5 27.8-21.3 14.7-10.8 27-20.4 27.3-21.3 1.1-2.9.6-5.4-1.4-7.4-1.9-1.9-3.3-2-37-2h-35l-3-2.8c-2.7-2.4-4.4-6.7-13.4-35-5.7-17.8-11.2-33.2-12.1-34.2-2.2-2.5-6.7-2.6-8.8-.2zm9.6 45.9c.8 1 3.9 9.2 6.7 18.3 2.9 9.1 5.9 17.5 6.6 18.7 1.4 2.3 1.8 2.3 21.2 2.3 15.7 0 20.2.3 21.8 1.4 4 3 .6 4.8-27.4 14.5-33.3 11.5-33.2 11.3-15.4 18.6 5.8 2.4 10.2 4.9 11.7 6.7 2.3 2.8 12.5 32.5 12.5 36.6 0 2.4-1.8 3.3-4.2 2.1-.9-.5-8.9-11-17.8-23.5-8.9-12.4-16.9-22.8-17.7-23.1-2.7-1-3.6 1.6-4.5 12.9-.5 6.2-1.6 12.6-2.4 14.3-2 4.1-32.8 26.7-35.7 26.3-1.2-.2-2.3-1-2.5-1.9-.2-.9 7.4-13.9 16.8-28.9 9.4-15 17-28 16.8-28.9-.2-1.1-7.2-4-23.8-9.8-33-11.6-32-11.2-32-13.3 0-1.1.9-2.4 1.9-3 2.5-1.3 33.4-1.3 38.2 0 2.8.8 5.3 3.1 11 9.9 12.9 15.6 12.9 15.7 12.9-20.8 0-21 .3-29 1.2-29.9 1.6-1.6 2.2-1.5 4.1.5zM567.8 79c-12.9 1.6-23.3 6.5-30.8 14.7-5.8 6.4-8.4 13.2-8.3 22.3 0 8.1 2.5 14.1 8.4 20.5 6.3 6.9 11.1 9.8 28.7 17.6 26 11.6 34.1 17 38.2 25.4 3.2 6.6 2.6 17.5-1.2 23.3-3.6 5.3-8.3 8.8-15.4 11.3-7.8 2.8-22.5 2.4-29.6-.8-6.5-3-13.5-9.7-16.8-16.3-3.2-6.3-6-16.1-6-20.9 0-3-.2-3.1-4-3.1h-4v24c0 21.1.2 24 1.6 24 3.6 0 5.4-2 5.4-6v-3.9l7.8 3.9c25 12.5 58.3 9.6 74.4-6.6 13.8-13.8 14-34.2.5-48.2-6-6.2-11.4-9.3-30.4-17.8-18-8.1-23.7-11.1-29.4-15.6-7-5.6-10.1-14.7-8-23.6 1.6-6.5 5.9-11.4 12.9-14.9 5.2-2.5 6.7-2.8 16.2-2.8 9.4 0 11.1.3 16.7 2.9 10.8 4.9 17.8 14.7 19 26.2.6 5.4.6 5.4 3.9 5.4h3.4v-20c0-19.1-.1-20-1.9-20-2.5 0-5.1 2.6-5.1 5.1 0 2.4-.2 2.4-4.9-.1-9.4-4.8-28.3-7.5-41.3-6zm416 0c-36 4.3-59.8 32.5-59.8 70.8 0 13.8 2.2 23.7 7.7 35.2 3.9 8.1 5.8 10.8 13.2 18 14.4 14.3 27.5 19.4 49.6 19.3 17.2-.1 26-2.4 44.8-12.1.4-.2.7 1.4.7 3.5 0 4.4 1.5 6.8 4.8 7.8l2.2.6V178h-2.9c-2.5 0-3.1.6-4.6 4.7-8.6 23.2-24.8 34.2-48.6 33.1-11.7-.6-18.4-3.3-26.3-10.8-13-12.3-19.5-37.9-16.8-65.9 2-20 7.9-34.2 18-43.3 17.4-15.7 45.4-14.2 61.5 3.2 5 5.4 12.7 18.6 12.7 21.9 0 .6 1.4 1.1 3 1.1h3V80h-2.3c-3.4 0-4.7 1.9-4.7 6.7 0 2.4-.3 4.3-.6 4.3s-1.8-.9-3.4-2c-10.3-7.3-34.2-12-51.2-10zM648 84v3h18v127h-18v7h61.1l-.3-2.7c-.4-3.4-2.5-4.1-14-4.2l-8.8-.1v-54.7l18.3-.6c11.4-.3 20.5-1.1 24.5-2.1 14-3.5 25-11.7 30-22.4 2.4-5 2.7-6.9 2.7-16.2 0-9.5-.3-11.1-2.8-16.2-3.2-6.5-8.5-11.6-15.6-15.3-10-5-14.4-5.5-56.3-5.5H648v3zm77.5 5.7c9.2 4.9 13.6 13.1 14.3 26.6.9 16.8-4.4 27.6-16 32.8-4.7 2.1-7.1 2.4-21.5 2.7l-16.3.4V86.8l17.8.4c15.8.3 18.1.5 21.7 2.5zM836 81.2c-.1.2-11.7 30-25.9 66.3l-25.7 66-7.5.5-7.4.5v6h20.4c13.3 0 20.6-.4 20.8-1 .2-.6-.3-1.9-1-2.9-1-1.4-3.1-2-8.5-2.4-4-.2-7.2-.7-7.2-1.1 0-.3 3.8-10.3 8.4-22.1l8.3-21.5h48.8l8.5 22 8.6 22-7.3.3-7.3.3v6.9h25c23.8 0 25-.1 25-1.9 0-2.8-2.2-4.1-8.5-4.9l-5.7-.7-26.5-66.3L844.8 81h-4.4c-2.4 0-4.4.1-4.4.2zm9.9 53.2c5.6 14.2 10.1 26.4 10.1 27.2 0 1.2-3.7 1.4-21 1.4-15.2 0-21-.3-21-1.2 0-2.3 20.5-54.6 21.2-54 .4.4 5.2 12.3 10.7 26.6zM1067 84v3h18v127h-18v7h106.7l.6-9.8c.4-5.3.7-14.8.7-21 0-11 0-11.2-2.2-11.2-1.9 0-2.6 1-4.1 6-3.3 11.5-5.8 16.8-9.8 21.4-6.7 7.5-6.9 7.6-31.9 7.6h-22v-62h48v-7h-48V87h21c16.8 0 21.8.3 24.8 1.6 7.7 3.2 12.4 10.1 17.2 25.4 2.2 6.9 3.1 8.6 4.8 8.8 2.1.3 2.2 0 2.2-11 0-6.2-.3-15.7-.7-21.1l-.6-9.7H1067v3zm119 0v3h13.6l21.4 59.7c11.7 32.9 22.5 62.6 24 66 2.8 6.1 6.8 10 9.3 9 .7-.3 8-19.4 16.2-42.6 8.2-23.1 15.2-41.7 15.6-41.3.3.4 6.1 16.4 12.9 35.7 14.4 41.1 16.4 45.7 20.2 46.6 1.8.5 3.1.3 3.5-.4.4-.7 10.9-30.7 23.3-66.7l22.6-65.5 6-.5c5.6-.5 5.9-.7 6.2-3.3l.3-2.7H1343v6h9c5 0 9 .3 9 .8 0 .6-34.1 103.5-35.6 107.2-.5 1.2-37.4-104.5-37.4-107.1 0-.5 4.1-.9 9-.9h9v-6h-40l1.1 2.7c.6 1.6 4.2 11.6 8 22.3l6.9 19.4-12.2 35.5c-6.7 19.4-12.4 35-12.5 34.5-.2-.5-9-25-19.6-54.4l-19.3-53.5 9.3-.3 9.3-.3V81h-51v3zm204 0v3h18v127h-18v7h106.7l.7-7.7c.3-4.2.6-13.6.6-21V179h-2.5c-1.5 0-2.5.6-2.5 1.5 0 3.2-5.9 18.7-9 23.5-1.9 2.9-5 6.1-7.5 7.5-4.1 2.5-4.6 2.5-25.8 2.5H1429v-62h47v-7h-47V87h20.5c22.4 0 25.3.6 30.8 5.8 4.5 4.3 6.8 8.7 10.2 19.6 2.7 8.3 3.6 10.2 5.4 10.4 2.1.3 2.1.1 2.1-14 0-7.9-.3-17.3-.7-21.1l-.6-6.7H1390v3zm129-.1V87h19v126.9l-9.2.3-9.3.3v6h38.5c33.8-.1 39.3-.3 44.9-1.9 17.3-4.8 28.8-15.5 32.7-30.6 4.8-19-7.3-37.6-27.4-42.1l-5.2-1.2 5.2-2.9c7.1-3.9 12-8.9 15.8-15.9 9.2-17.4 1.6-34.5-18.8-42.2-5.4-2-7.7-2.1-45.9-2.5l-40.3-.3v3zm71.6 4.6c10.5 3.1 15.9 11.7 15.9 25.5 0 7.6-.3 9.1-3 13.8-3 5.6-8.2 9.9-14.5 12.1-1.9.7-9.7 1.5-17.2 1.8l-13.8.6V87h13.8c9.3 0 15.5.5 18.8 1.5zm8.4 63c10.6 5.8 15.6 16.3 14.8 31.3-.7 13.9-6.7 23.9-17.3 28.8-4.6 2.2-6.3 2.4-21.7 2.4H1558v-66.2l17.8.4c17.5.3 17.8.3 23.2 3.3zM672.7 275.2c.5 13.3.6 13.8 3.3 13.8 2.7 0 2.8-.5 3.3-13.8l.3-11.2h-7.2l.3 11.2zm13.6-4.5c.4 3.8.7 9.4.7 12.5 0 5.4.2 5.8 2.4 5.8 2.1 0 2.4-.6 3-5.3.3-2.8.6-8.5.6-12.5V264h-7.3l.6 6.7zm1248.5 2.5c.4 13.3.9 15.8 3.3 15.8 2.5 0 2.6-.4 3.2-13.8l.6-11.2h-7.4l.3 9.2zm13.6-4c.3 2.9.6 8.6.6 12.5 0 7.1.1 7.3 2.4 7.3 2.8 0 3.3-2.2 3.8-16.8l.3-8.2h-7.8l.7 5.2zm-809.1-3.2c-14.6 2.1-24.3 15.4-23.1 31.9.9 11.4 6.5 19.8 16.3 24.3 4.1 1.8 6.7 2.2 14.5 2.2 5.2 0 11.4-.6 13.8-1.2l4.2-1.3V295h-6v22l-2.7.7c-1.6.5-5.9.8-9.8.7-14.7-.1-22.7-8.4-22.7-23.6 0-11.3 5-18.7 14.6-21.8 5.1-1.6 14.8-.8 20.9 1.9l4.8 2.1-.3-3.8c-.3-3.5-.6-3.8-5.3-5.3-6.6-2.2-12.8-2.8-19.2-1.9zm134.4 0c-13.8 2.4-22.3 13.6-22.1 29.5.1 17.1 9.5 27.6 26 29.2 12.3 1.1 23.3-4.8 28.5-15.5 3.3-6.8 3.4-20.6.1-27.8-5.4-11.8-18.1-17.9-32.5-15.4zm16.1 7.9c7.9 4.1 11.2 10.3 11.2 21.3 0 4.9-.6 8.6-1.9 11.3-2.1 4.6-8 10.2-11.6 11-1.4.3-3.6.7-4.9 1-1.4.3-4.9 0-7.8-.6-4.1-.9-6.2-2.1-9.4-5.4-10.4-10.7-7.9-31.6 4.5-38.2 5.7-3 14.5-3.1 19.9-.4zm180.9-7.9c-21.4 3.7-30 32.9-14.8 50.2 6.5 7.5 19.4 10.6 30.7 7.3 8.1-2.3 15.6-9.8 18-18.1 3.2-11 .3-24.8-6.8-32.1-5.8-6-17.1-9-27.1-7.3zm16.1 7.9c7.9 4.1 11.2 10.3 11.2 21.3 0 4.9-.6 8.6-1.9 11.3-2.1 4.6-8 10.2-11.6 11-1.4.3-3.6.7-4.9 1-1.4.3-4.9 0-7.8-.6-4.1-.9-6.2-2.1-9.4-5.4-10.3-10.7-7.9-31.6 4.5-38.2 5.7-3 14.5-3.1 19.9-.4zm101.7-8c-9.5 2.4-14.4 10-12.5 18.8 1.2 5.2 5.6 8.6 15.8 12.3 9.5 3.4 11.4 4.3 13.6 6.6 2.2 2.1 2 8.6-.2 11.4-3.4 4.2-16.5 4.5-24.2.5-3.7-1.9-3.6-2-4.4 2.2-.7 3-.6 3.1 4.6 4.9 7.7 2.6 21.2 2.6 25.7-.1 5.8-3.4 7.6-6.8 7.6-14.1 0-5.8-.3-6.6-3.1-9.4-2-2.1-6.7-4.5-13.5-7.1-14.5-5.4-18-10.1-12.6-16.5 2-2.3 3.4-2.8 8.3-3.2 5.3-.3 8.9.4 15.5 3.2 2.4 1 3.4-4.4 1.1-6.2-3.5-2.7-16.5-4.7-21.7-3.3zm-881.8.8c-.4.3-.7 13.4-.7 29V324h36v-5.9l-14.2-.3-14.3-.3-.3-9.8-.3-9.7H740v-6h-27v-19h29v-7h-17.3c-9.6 0-17.7.3-18 .7zm43.3-.1c0 .3 3.9 6.5 8.7 13.7 4.7 7.3 8.6 13.7 8.6 14.2 0 .6-3.6 6.9-8 14-4.4 7.2-8.3 13.6-8.7 14.2-.5 1 .4 1.3 3.3 1.3h4l7.2-11.5c3.9-6.3 7.5-11.8 8-12 .4-.3 4.4 4.8 8.9 11.5 8 12 8 12 12 12 2.2 0 4-.2 4-.4 0-.3-4.3-6.8-9.5-14.5-8.6-12.6-9.5-14.3-8.4-16.3.6-1.2 4.3-7 8.1-13 8.9-14 8.8-13.8 4.6-13.8-4.1 0-4.6.5-12.3 13-3.2 5.2-6.1 9.9-6.5 10.3-.4.5-4.2-4.6-8.5-11.2-7.7-12.1-7.7-12.1-11.6-12.1-2.1 0-3.9.3-3.9.6zm59 28.3V324h7v-22.8l10.3-.4c12-.4 16.5-2.1 19.9-7.7 3.2-5 3.3-15.6.2-19.8-3.8-5.3-8.4-6.6-23.6-7.1l-13.8-.5v29.2zm24-22c5.6 1.1 8 4 8 9.7 0 9.3-2.9 11.6-15.7 12.2l-9.3.4v-10.9c0-6 .3-11.3.7-11.6.9-1 10.9-.8 16.3.2zm41.5-3.7c-2 5-19.5 53.5-19.5 54.3 0 .3 1.7.5 3.7.3 3.5-.3 3.7-.5 5.8-6.8l2.2-6.5 13.2-.3c10-.2 13.2 0 13.6 1 4.4 12.6 4.5 12.8 8.1 12.8 1.9 0 3.4-.4 3.4-.9s-4.1-12.3-9.1-26.3c-5-13.9-9.6-26.5-10.1-28.1-.9-2.4-1.5-2.7-5.4-2.7-4.1 0-4.6.3-5.9 3.2zm15.9 32.5c.7 2.3.7 2.3-10.3 2.3h-11l4.6-13.3c2.5-7.2 5-14.3 5.5-15.7.9-2.2 1.5-1 5.8 11 2.6 7.4 5 14.5 5.4 15.7zm25.3-35c-.4.3-.7 13.4-.7 29V324h7v-22.7c0-18.1.3-22.5 1.3-21.5.6.7 8 10.8 16.2 22.5 13.8 19.5 15.3 21.2 18.3 21.5l3.2.3v-58.2l-3.2.3-3.3.3-.5 22.2-.5 22.2-15.9-22.5c-14-19.9-16.1-22.4-18.5-22.4-1.5 0-3.1.3-3.4.7zm61.1-.1c-.5.4-.8 13.5-.8 29.2v28.4l14.3-.4c13.1-.3 14.6-.5 19.9-3.1 9.5-4.6 13.8-12.7 13.8-25.6 0-13-4.3-21.2-13.5-25.7-5-2.4-7-2.7-19.3-3.2-7.5-.2-14-.1-14.4.4zm28.5 7.8c8.4 3.5 13 14.4 10.9 25.9-2.3 12.5-8 16.8-22.9 17.5l-9.3.4V273h9c5.4 0 10.4.6 12.3 1.4zM1036 295v29h7v-58h-7v29zm22.7-28.3c-.4.3-.7 13.4-.7 29V324h7v-22.7c0-18.2.3-22.5 1.3-21.5.6.7 8 10.8 16.2 22.5 13.8 19.5 15.3 21.2 18.3 21.5l3.2.3v-58.2l-3.2.3-3.3.3-.5 22.2-.5 22.2-15.9-22.5c-14-19.7-16.2-22.4-18.6-22.4-1.5 0-3 .3-3.3.7zM1194 295v29h7v-26h31v26h8l-.2-28.8-.3-28.7h-7l-.3 12.8-.3 12.8-15.2-.3-15.2-.3-.3-12.8-.3-12.7h-6.9v29zm127-.1V324h7v-23h5.3l5.2.1 8.9 11.4c8.6 11.1 9 11.5 12.7 11.5 2.2 0 3.9-.2 3.9-.5s-4.2-5.8-9.4-12.3l-9.5-11.7 3.8-1.3c10.1-3.4 14.4-17.5 7.9-25.7-3.5-4.5-8-5.8-22.5-6.3l-13.3-.5v29.2zm22.4-22c6.4 1.1 8.6 3.7 8.6 10.2 0 8.6-5 11.7-18.7 11.9h-5.3v-23l5.3.1c2.8 0 7.4.4 10.1.8zM1375 295v29h7v-58h-7v29zm19.4-27.6c-.3.8-.4 2.3-.2 3.3.3 1.6 2 1.8 17.6 2.3l17.4.5-17.6 23c-10.7 14-17.6 23.9-17.6 25.2v2.3h46v-6h-17.5c-9.6 0-17.5-.3-17.5-.8 0-.4 7.9-10.9 17.6-23.5 12.7-16.5 17.4-23.4 17.2-25-.3-2.2-.4-2.2-22.6-2.5-18.8-.2-22.3 0-22.8 1.2zm123.6 27.5V324h7l.2-22.4.3-22.3 15.6 22.1c15.1 21.4 15.7 22.1 19.3 22.4l3.6.3-.2-28.8-.3-28.8-3.2-.3-3.3-.3v22.5c0 12.4-.3 22.6-.7 22.6-.5-.1-7.8-10.1-16.4-22.3-14.2-20.3-15.8-22.2-18.7-22.5l-3.2-.3v29zm123.7-28.2c-.4.3-.7 13.4-.7 29V324h8v-58h-3.3c-1.9 0-3.7.3-4 .7zm22.3 28.2V324h7l.2-22.6.3-22.5 16 22.5c15.2 21.7 16 22.6 19.2 22.6h3.3v-58h-7l-.2 22.7-.3 22.8-16-22.5c-14.7-20.7-16.3-22.5-19.2-22.8l-3.3-.3v29zm71-28.7c0 .2 3.7 13.1 8.3 28.8l8.2 28.5 4.6.3 4.5.3 1.6-5.8c.9-3.2 3.8-13.8 6.4-23.6 2.6-9.8 5-17.4 5.4-17 .4.4 2.8 8.7 5.4 18.3 2.6 9.6 5.4 19.9 6.2 22.7l1.5 5.3h9.4l7.9-27.3c4.3-14.9 8.1-28 8.4-29 .4-1.4-.2-1.7-3.6-1.7-4 0-4.2.1-5.2 4.2-2.3 8.5-11.1 41.3-11.6 43.1-.3 1-.8 1.6-1.1 1.4-.2-.3-3.3-11.2-6.7-24.3l-6.3-23.9h-8.6l-5.3 20.5c-6.3 24.4-7.4 28.3-7.9 27.8-.2-.2-2.9-9.8-6-21.3-8-30-6.9-27.5-11.6-27.5-2.1 0-3.9.1-3.9.2zm88 28.8v29h36v-6h-29v-20h27v-6h-27v-18.9l14.3-.3 14.2-.3v-6l-17.7-.3-17.8-.2v29zm48 0v29.2l14.3-.4c15.6-.4 20.2-1.7 24-6.9 4.9-6.8 2.6-17.4-4.4-20.6-4.3-2-4.8-2.9-1.9-3.8 1-.3 3.1-2 4.5-3.6 2-2.5 2.5-4.1 2.5-8.8 0-4.8-.4-6.3-2.5-8.5-3.7-4-6.8-4.7-22.2-5.3l-14.3-.6V295zm24-22.1c8.2 1.6 10.7 9.1 5.1 15.3-2.9 3.2-3.1 3.3-12.5 3.6l-9.6.4V272h6.3c3.4.1 8.2.5 10.7.9zm6.4 28c2 1.9 2.6 3.4 2.6 6.6 0 8-4.4 10.5-18.2 10.5h-7.8v-20.2l10.4.4c9.4.3 10.7.5 13 2.7zM495 298.5v9.5h168v-19H495v9.5z"/></svg>