<svg width="52" height="52" viewBox="0 0 52 52" fill="none" xmlns="http://www.w3.org/2000/svg">
<g id="Icon_solarium">
<path id="Vector" d="M13.0003 23.834C9.38921 23.834 2.16699 21.6673 2.16699 13.0007C2.16699 4.33398 9.38921 2.16732 13.0003 2.16732H39.0003C42.6115 2.16732 49.8337 4.33398 49.8337 13.0007C49.8337 21.6673 42.6115 23.834 39.0003 23.834" stroke="#2B180D" stroke-width="1.08333" stroke-linecap="square" stroke-linejoin="round"/>
<path id="Vector_2" d="M26 26C29.59 26 32.5 28.91 32.5 32.5C32.5 36.0898 29.59 39 26 39C22.4101 39 19.5 36.0898 19.5 32.5C19.5 28.91 22.4101 26 26 26Z" stroke="#AB5E34" stroke-width="1.08333" stroke-linecap="square" stroke-linejoin="round"/>
<path id="Vector_3" d="M41.167 32.5H43.3337" stroke="#AB5E34" stroke-width="1.08333" stroke-linecap="square" stroke-linejoin="round"/>
<path id="Vector_4" d="M26 47.6673V49.834" stroke="#AB5E34" stroke-width="1.08333" stroke-linecap="square" stroke-linejoin="round"/>
<path id="Vector_5" d="M40.0837 44.416L37.917 42.2493" stroke="#AB5E34" stroke-width="1.08333" stroke-linecap="square" stroke-linejoin="round"/>
<path id="Vector_6" d="M11.917 44.416L14.0837 42.2493" stroke="#AB5E34" stroke-width="1.08333" stroke-linecap="square" stroke-linejoin="round"/>
<path id="Vector_7" d="M8.66699 32.5H10.8337" stroke="#AB5E34" stroke-width="1.08333" stroke-linecap="square" stroke-linejoin="round"/>
<circle id="Ellipse 1" cx="14" cy="24" r="3" fill="#2B180D"/>
<circle id="Ellipse 2" cx="38" cy="24" r="3" fill="#2B180D"/>
</g>
</svg>
