<svg width="52" height="52" viewBox="0 0 52 52" fill="none" xmlns="http://www.w3.org/2000/svg">
<g id="Icon_equipment">
<path id="Vector" d="M45.5 30.334H6.5" stroke="#2B180D" stroke-width="1.08333" stroke-linecap="round" stroke-linejoin="round"/>
<circle id="Ellipse 6" cx="26" cy="37" r="3" fill="#2B180D"/>
<circle id="Ellipse 5" cx="26" cy="24" r="3" fill="#2B180D"/>
<circle id="Ellipse 4" cx="26" cy="11" r="3" fill="#AB5E34"/>
<path id="Vector_2" d="M45.5 5.63398V42.034C45.5 42.752 44.918 43.334 44.2 43.334H7.8C7.08203 43.334 6.5 42.752 6.5 42.034V5.63398C6.5 4.91602 7.08203 4.33398 7.8 4.33398H44.2C44.918 4.33398 45.5 4.91602 45.5 5.63398Z" stroke="#2B180D" stroke-width="1.08333" stroke-linecap="round" stroke-linejoin="round"/>
<path id="Vector_3" d="M7.8 4.33398C7.08203 4.33398 6.5 4.91602 6.5 5.63398V17.5H26H45.5V5.63398C45.5 4.91602 44.918 4.33398 44.2 4.33398H7.8Z" stroke="#AB5E34" stroke-width="1.08333" stroke-linecap="round" stroke-linejoin="round"/>
<path id="Vector_4" d="M37.917 43.334V47.6673" stroke="#2B180D" stroke-width="1.08333" stroke-linecap="round" stroke-linejoin="round"/>
<path id="Vector_5" d="M14.083 43.334V47.6673" stroke="#2B180D" stroke-width="1.08333" stroke-linecap="round" stroke-linejoin="round"/>
</g>
</svg>
