<?xml version="1.0" standalone="no"?>
<!DOCTYPE svg PUBLIC "-//W3C//DTD SVG 20010904//EN"
 "http://www.w3.org/TR/2001/REC-SVG-20010904/DTD/svg10.dtd">
<svg version="1.0" xmlns="http://www.w3.org/2000/svg"
 width="2000.000000pt" height="409.000000pt" viewBox="0 0 2000.000000 409.000000"
 preserveAspectRatio="xMidYMid meet">

<g transform="translate(0.000000,409.000000) scale(0.100000,-0.100000)"
fill="#000000" stroke="none">
<path d="M1540 3985 c-17 -9 -91 -126 -220 -347 -107 -183 -356 -607 -553
-943 -197 -335 -361 -624 -364 -642 -5 -28 37 -105 359 -655 201 -343 447
-765 548 -938 100 -173 195 -327 211 -343 l30 -27 1129 2 1130 3 28 30 c16 17
150 237 297 490 148 253 385 657 527 898 142 241 265 451 273 467 35 67 27 85
-161 405 -97 165 -345 588 -551 940 -205 352 -383 648 -394 658 -20 16 -89 17
-1143 17 -938 -1 -1125 -3 -1146 -15z m2004 -104 c-25 -24 -1587 -513 -1626
-509 -30 3 -35 11 -149 248 -65 135 -118 251 -118 258 -1 9 196 12 951 12 558
0 948 -4 942 -9z m220 -88 c9 -31 306 -1643 312 -1699 4 -30 4 -54 2 -54 -3 0
-412 242 -909 538 -497 296 -962 573 -1032 614 -70 42 -124 78 -120 81 4 2
103 34 218 71 116 36 494 156 840 266 347 109 642 199 657 199 17 1 29 -5 32
-16z m-2129 -150 c147 -304 160 -334 149 -351 -16 -25 -1134 -1062 -1146
-1062 -5 0 -8 4 -6 9 11 30 913 1561 920 1561 4 0 42 -71 83 -157z m2738 -803
c235 -403 426 -734 425 -735 -11 -9 -520 -115 -551 -115 -15 0 -30 6 -33 13
-16 41 -289 1577 -280 1574 6 -2 204 -333 439 -737z m-1375 -290 c578 -344
1050 -628 1049 -632 -2 -7 -2103 -1168 -2113 -1168 -2 0 -4 547 -4 1216 0 677
4 1214 9 1212 4 -1 481 -284 1059 -628z m-1198 -577 l0 -1178 -603 609 c-331
335 -602 612 -602 616 0 5 1194 1127 1203 1129 1 1 2 -529 2 -1176z m2997 3
c-8 -21 -907 -1559 -918 -1570 -20 -21 -4 51 120 565 205 842 208 854 220 877
14 25 26 29 320 92 255 54 265 56 258 36z m-723 -208 c-11 -57 -346 -1451
-355 -1475 -5 -15 -17 -23 -32 -23 -19 0 -637 147 -1520 361 -70 17 -127 34
-127 38 0 8 -60 -26 790 443 1152 637 1245 688 1247 688 1 0 0 -15 -3 -32z
m-2820 -584 c281 -284 514 -525 518 -535 5 -12 -3 -36 -20 -68 -45 -81 -187
-310 -193 -311 -4 0 -773 1307 -827 1406 -10 19 -10 24 0 24 6 0 242 -232 522
-516z m1444 -790 c394 -97 723 -179 732 -184 9 -6 -340 -10 -877 -10 -491 0
-893 2 -893 5 0 15 215 348 234 361 14 10 32 13 55 9 19 -4 356 -85 749 -181z"/>
<path d="M17757 3982 c-9 -9 -61 -161 -117 -337 -84 -263 -107 -325 -131 -350
l-29 -30 -357 -5 -356 -5 -19 -26 c-38 -51 -27 -62 271 -283 272 -200 301
-228 301 -279 0 -12 -45 -163 -100 -335 -55 -172 -100 -325 -100 -341 0 -34
28 -61 62 -61 17 0 73 34 162 100 75 55 196 144 270 199 74 54 146 101 161
105 15 4 42 2 60 -4 18 -6 151 -98 296 -205 292 -217 312 -226 348 -157 10 20
-2 67 -94 357 -97 303 -106 337 -96 367 7 18 17 40 24 48 7 9 132 105 278 213
147 108 270 204 273 213 11 29 6 54 -14 74 -19 19 -33 20 -370 20 l-350 0 -30
28 c-27 24 -44 67 -134 350 -57 178 -112 332 -121 342 -22 25 -67 26 -88 2z
m96 -459 c8 -10 39 -92 67 -183 29 -91 59 -175 66 -187 14 -23 18 -23 212 -23
157 0 202 -3 218 -14 40 -30 6 -48 -274 -145 -333 -115 -332 -113 -154 -186
58 -24 102 -49 117 -67 23 -28 125 -325 125 -366 0 -24 -18 -33 -42 -21 -9 5
-89 110 -178 235 -89 124 -169 228 -177 231 -27 10 -36 -16 -45 -129 -5 -62
-16 -126 -24 -143 -20 -41 -328 -267 -357 -263 -12 2 -23 10 -25 19 -2 9 74
139 168 289 94 150 170 280 168 289 -2 11 -72 40 -238 98 -330 116 -320 112
-320 133 0 11 9 24 19 30 25 13 334 13 382 0 28 -8 53 -31 110 -99 129 -156
129 -157 129 208 0 210 3 290 12 299 16 16 22 15 41 -5z"/>
<path d="M5678 3300 c-129 -16 -233 -65 -308 -147 -58 -64 -84 -132 -83 -223
0 -81 25 -141 84 -205 63 -69 111 -98 287 -176 260 -116 341 -170 382 -254 32
-66 26 -175 -12 -233 -36 -53 -83 -88 -154 -113 -78 -28 -225 -24 -296 8 -65
30 -135 97 -168 163 -32 63 -60 161 -60 209 0 30 -2 31 -40 31 l-40 0 0 -240
c0 -211 2 -240 16 -240 36 0 54 20 54 60 l0 39 78 -39 c250 -125 583 -96 744
66 138 138 140 342 5 482 -60 62 -114 93 -304 178 -180 81 -237 111 -294 156
-70 56 -101 147 -80 236 16 65 59 114 129 149 52 25 67 28 162 28 94 0 111 -3
167 -29 108 -49 178 -147 190 -262 6 -54 6 -54 39 -54 l34 0 0 200 c0 191 -1
200 -19 200 -25 0 -51 -26 -51 -51 0 -24 -2 -24 -49 1 -94 48 -283 75 -413 60z"/>
<path d="M9838 3300 c-360 -43 -598 -325 -598 -708 0 -138 22 -237 77 -352 39
-81 58 -108 132 -180 144 -143 275 -194 496 -193 172 1 260 24 448 121 4 2 7
-14 7 -35 0 -44 15 -68 48 -78 l22 -6 0 220 0 221 -29 0 c-25 0 -31 -6 -46
-47 -86 -232 -248 -342 -486 -331 -117 6 -184 33 -263 108 -130 123 -195 379
-168 659 20 200 79 342 180 433 174 157 454 142 615 -32 50 -54 127 -186 127
-219 0 -6 14 -11 30 -11 l30 0 0 210 0 210 -23 0 c-34 0 -47 -19 -47 -67 0
-24 -3 -43 -6 -43 -3 0 -18 9 -34 20 -103 73 -342 120 -512 100z"/>
<path d="M6480 3250 l0 -30 90 0 90 0 0 -635 0 -635 -90 0 -90 0 0 -35 0 -35
306 0 305 0 -3 27 c-4 34 -25 41 -140 42 l-88 1 0 274 0 273 183 6 c114 3 205
11 245 21 140 35 250 117 300 224 24 50 27 69 27 162 0 95 -3 111 -28 162 -32
65 -85 116 -156 153 -100 50 -144 55 -563 55 l-388 0 0 -30z m775 -57 c92 -49
136 -131 143 -266 9 -168 -44 -276 -160 -328 -47 -21 -71 -24 -215 -27 l-163
-4 0 327 0 327 178 -4 c158 -3 181 -5 217 -25z"/>
<path d="M8360 3278 c-1 -2 -117 -300 -259 -663 l-257 -660 -75 -5 -74 -5 0
-30 0 -30 204 0 c133 0 206 4 208 10 2 6 -3 19 -10 29 -10 14 -31 20 -85 24
-40 2 -72 7 -72 11 0 3 38 103 84 221 l83 215 244 0 244 0 85 -220 86 -220
-73 -3 -73 -3 0 -34 0 -35 250 0 c238 0 250 1 250 19 0 28 -22 41 -85 49 l-57
7 -265 663 -265 662 -44 0 c-24 0 -44 -1 -44 -2z m99 -532 c56 -142 101 -264
101 -272 0 -12 -37 -14 -210 -14 -152 0 -210 3 -210 12 0 23 205 546 212 540
4 -4 52 -123 107 -266z"/>
<path d="M10670 3250 l0 -30 90 0 90 0 0 -635 0 -635 -90 0 -90 0 0 -35 0 -35
533 0 534 0 6 98 c4 53 7 148 7 210 0 110 0 112 -22 112 -19 0 -26 -10 -41
-60 -33 -115 -58 -168 -98 -214 -67 -75 -69 -76 -319 -76 l-220 0 0 310 0 310
240 0 240 0 0 35 0 35 -240 0 -240 0 0 290 0 290 210 0 c168 0 218 -3 248 -16
77 -32 124 -101 172 -254 22 -69 31 -86 48 -88 21 -3 22 0 22 110 0 62 -3 157
-7 211 l-6 97 -534 0 -533 0 0 -30z"/>
<path d="M11860 3250 l0 -30 68 0 68 0 214 -597 c117 -329 225 -626 240 -660
28 -61 68 -100 93 -90 7 3 80 194 162 426 82 231 152 417 156 413 3 -4 61
-164 129 -357 144 -411 164 -457 202 -466 18 -5 31 -3 35 4 4 7 109 307 233
667 l226 655 60 5 c56 5 59 7 62 33 l3 27 -190 0 -191 0 0 -30 0 -30 90 0 c50
0 90 -3 90 -8 0 -6 -341 -1035 -356 -1072 -5 -12 -374 1045 -374 1071 0 5 41
9 90 9 l90 0 0 30 0 30 -200 0 -200 0 11 -27 c6 -16 42 -116 80 -223 l69 -194
-122 -355 c-67 -194 -124 -350 -125 -345 -2 5 -90 250 -196 544 l-193 535 93
3 93 3 0 29 0 30 -255 0 -255 0 0 -30z"/>
<path d="M13900 3250 l0 -30 90 0 90 0 0 -635 0 -635 -90 0 -90 0 0 -35 0 -35
534 0 533 0 7 77 c3 42 6 136 6 210 l0 133 -25 0 c-15 0 -25 -6 -25 -15 0 -32
-59 -187 -90 -235 -19 -29 -50 -61 -75 -75 -41 -25 -46 -25 -258 -25 l-217 0
0 310 0 310 235 0 235 0 0 35 0 35 -235 0 -235 0 0 290 0 290 205 0 c224 0
253 -6 308 -58 45 -43 68 -87 102 -196 27 -83 36 -102 54 -104 21 -3 21 -1 21
140 0 79 -3 173 -7 211 l-6 67 -533 0 -534 0 0 -30z"/>
<path d="M15190 3251 l0 -31 95 0 95 0 0 -635 0 -634 -92 -3 -93 -3 0 -30 0
-30 385 0 c338 1 393 3 449 19 173 48 288 155 327 306 48 190 -73 376 -274
421 l-52 12 52 29 c71 39 120 89 158 159 92 174 16 345 -188 422 -54 20 -77
21 -459 25 l-403 3 0 -30z m716 -46 c105 -31 159 -117 159 -255 0 -76 -3 -91
-30 -138 -30 -56 -82 -99 -145 -121 -19 -7 -97 -15 -172 -18 l-138 -6 0 277 0
276 138 0 c93 0 155 -5 188 -15z m84 -630 c106 -58 156 -163 148 -313 -7 -139
-67 -239 -173 -288 -46 -22 -63 -24 -217 -24 l-168 0 0 331 0 331 178 -4 c175
-3 178 -3 232 -33z"/>
<path d="M6727 1338 c5 -133 6 -138 33 -138 27 0 28 5 33 138 l3 112 -36 0
-36 0 3 -112z"/>
<path d="M6863 1383 c4 -38 7 -94 7 -125 0 -54 2 -58 24 -58 21 0 24 6 30 53
3 28 6 85 6 125 l0 72 -36 0 -37 0 6 -67z"/>
<path d="M19348 1358 c4 -133 9 -158 33 -158 25 0 26 4 32 138 l6 112 -37 0
-37 0 3 -92z"/>
<path d="M19484 1398 c3 -29 6 -86 6 -125 0 -71 1 -73 24 -73 28 0 33 22 38
168 l3 82 -39 0 -39 0 7 -52z"/>
<path d="M11393 1430 c-146 -21 -243 -154 -231 -319 9 -114 65 -198 163 -243
41 -18 67 -22 145 -22 52 0 114 6 138 12 l42 13 0 134 0 135 -30 0 -30 0 0
-110 0 -110 -27 -7 c-16 -5 -59 -8 -98 -7 -147 1 -227 84 -227 236 0 113 50
187 146 218 51 16 148 8 209 -19 l48 -21 -3 38 c-3 35 -6 38 -53 53 -66 22
-128 28 -192 19z"/>
<path d="M12737 1430 c-138 -24 -223 -136 -221 -295 1 -171 95 -276 260 -292
123 -11 233 48 285 155 33 68 34 206 1 278 -54 118 -181 179 -325 154z m161
-79 c79 -41 112 -103 112 -213 0 -49 -6 -86 -19 -113 -21 -46 -80 -102 -116
-110 -14 -3 -36 -7 -49 -10 -14 -3 -49 0 -78 6 -41 9 -62 21 -94 54 -104 107
-79 316 45 382 57 30 145 31 199 4z"/>
<path d="M14707 1430 c-214 -37 -300 -329 -148 -502 65 -75 194 -106 307 -73
81 23 156 98 180 181 32 110 3 248 -68 321 -58 60 -171 90 -271 73z m161 -79
c79 -41 112 -103 112 -213 0 -49 -6 -86 -19 -113 -21 -46 -80 -102 -116 -110
-14 -3 -36 -7 -49 -10 -14 -3 -49 0 -78 6 -41 9 -62 21 -94 54 -103 107 -79
316 45 382 57 30 145 31 199 4z"/>
<path d="M15885 1431 c-95 -24 -144 -100 -125 -188 12 -52 56 -86 158 -123 95
-34 114 -43 136 -66 22 -21 20 -86 -2 -114 -34 -42 -165 -45 -242 -5 -37 19
-36 20 -44 -22 -7 -30 -6 -31 46 -49 77 -26 212 -26 257 1 58 34 76 68 76 141
0 58 -3 66 -31 94 -20 21 -67 45 -135 71 -145 54 -180 101 -126 165 20 23 34
28 83 32 53 3 89 -4 155 -32 24 -10 34 44 11 62 -35 27 -165 47 -217 33z"/>
<path d="M7067 1423 c-4 -3 -7 -134 -7 -290 l0 -283 180 0 180 0 0 30 0 29
-142 3 -143 3 -3 98 -3 97 136 0 135 0 0 30 0 30 -135 0 -135 0 0 95 0 95 145
0 145 0 0 35 0 35 -173 0 c-96 0 -177 -3 -180 -7z"/>
<path d="M7500 1424 c0 -3 39 -65 87 -137 47 -73 86 -137 86 -142 0 -6 -36
-69 -80 -140 -44 -72 -83 -136 -87 -142 -5 -10 4 -13 33 -13 l40 0 72 115 c39
63 75 118 80 120 4 3 44 -48 89 -115 80 -120 80 -120 120 -120 22 0 40 2 40 4
0 3 -43 68 -95 145 -86 126 -95 143 -84 163 6 12 43 70 81 130 89 140 88 138
46 138 -41 0 -46 -5 -123 -130 -32 -52 -61 -99 -65 -103 -4 -5 -42 46 -85 112
-77 121 -77 121 -116 121 -21 0 -39 -3 -39 -6z"/>
<path d="M8090 1141 l0 -291 35 0 35 0 0 114 0 114 103 4 c120 4 165 21 199
77 32 50 33 156 2 198 -38 53 -84 66 -236 71 l-138 5 0 -292z m240 220 c56
-11 80 -40 80 -97 0 -93 -29 -116 -157 -122 l-93 -4 0 109 c0 60 3 113 7 116
9 10 109 8 163 -2z"/>
<path d="M8745 1398 c-20 -50 -195 -535 -195 -543 0 -3 17 -5 37 -3 35 3 37 5
58 68 l22 65 132 3 c100 2 132 0 136 -10 44 -126 45 -128 81 -128 19 0 34 4
34 9 0 5 -41 123 -91 263 -50 139 -96 265 -101 281 -9 24 -15 27 -54 27 -41 0
-46 -3 -59 -32z m159 -325 c7 -23 7 -23 -103 -23 l-110 0 46 133 c25 72 50
143 55 157 9 22 15 10 58 -110 26 -74 50 -145 54 -157z"/>
<path d="M9157 1423 c-4 -3 -7 -134 -7 -290 l0 -283 35 0 35 0 0 227 c0 181 3
225 13 215 6 -7 80 -108 162 -225 138 -195 153 -212 183 -215 l32 -3 0 291 0
291 -32 -3 -33 -3 -5 -222 -5 -222 -159 225 c-140 199 -161 224 -185 224 -15
0 -31 -3 -34 -7z"/>
<path d="M9768 1424 c-5 -4 -8 -135 -8 -292 l0 -284 143 4 c131 3 146 5 199
31 95 46 138 127 138 256 0 130 -43 212 -135 257 -50 24 -70 27 -193 32 -75 2
-140 1 -144 -4z m285 -78 c84 -35 130 -144 109 -259 -23 -125 -80 -168 -229
-175 l-93 -4 0 226 0 226 90 0 c54 0 104 -6 123 -14z"/>
<path d="M10360 1140 l0 -290 35 0 35 0 0 290 0 290 -35 0 -35 0 0 -290z"/>
<path d="M10587 1423 c-4 -3 -7 -134 -7 -290 l0 -283 35 0 35 0 0 227 c0 182
3 225 13 215 6 -7 80 -108 162 -225 138 -195 153 -212 183 -215 l32 -3 0 291
0 291 -32 -3 -33 -3 -5 -222 -5 -222 -159 225 c-140 197 -162 224 -186 224
-15 0 -30 -3 -33 -7z"/>
<path d="M11940 1140 l0 -290 35 0 35 0 0 130 0 130 155 0 155 0 0 -130 0
-130 40 0 40 0 -2 288 -3 287 -35 0 -35 0 -3 -128 -3 -128 -152 3 -152 3 -3
128 -3 127 -34 0 -35 0 0 -290z"/>
<path d="M13210 1141 l0 -291 35 0 35 0 0 115 0 115 53 0 52 -1 89 -114 c86
-111 90 -115 127 -115 22 0 39 2 39 5 0 3 -42 58 -94 123 l-95 117 38 13 c101
34 144 175 79 257 -35 45 -80 58 -225 63 l-133 5 0 -292z m224 220 c64 -11 86
-37 86 -102 0 -86 -50 -117 -187 -119 l-53 0 0 115 0 115 53 -1 c28 0 74 -4
101 -8z"/>
<path d="M13750 1140 l0 -290 35 0 35 0 0 290 0 290 -35 0 -35 0 0 -290z"/>
<path d="M13944 1416 c-3 -8 -4 -23 -2 -33 3 -16 20 -18 176 -23 l174 -5 -176
-230 c-107 -140 -176 -239 -176 -252 l0 -23 230 0 230 0 0 30 0 30 -175 0
c-96 0 -175 3 -175 8 0 4 79 109 176 235 127 165 174 234 172 250 -3 22 -4 22
-226 25 -188 2 -223 0 -228 -12z"/>
<path d="M15180 1141 l0 -291 35 0 35 0 2 224 3 223 156 -221 c151 -214 157
-221 193 -224 l36 -3 -2 288 -3 288 -32 3 -33 3 0 -225 c0 -124 -3 -226 -7
-226 -5 1 -78 101 -164 223 -142 203 -158 222 -187 225 l-32 3 0 -290z"/>
<path d="M16417 1423 c-4 -3 -7 -134 -7 -290 l0 -283 40 0 40 0 0 290 0 290
-33 0 c-19 0 -37 -3 -40 -7z"/>
<path d="M16640 1141 l0 -291 35 0 35 0 2 226 3 225 160 -225 c152 -217 160
-226 192 -226 l33 0 0 290 0 290 -35 0 -35 0 -2 -227 -3 -228 -160 225 c-147
207 -163 225 -192 228 l-33 3 0 -290z"/>
<path d="M17350 1428 c0 -2 37 -131 83 -288 l82 -285 46 -3 45 -3 16 58 c9 32
38 138 64 236 26 98 50 174 54 170 4 -4 28 -87 54 -183 26 -96 54 -199 62
-227 l15 -53 47 0 47 0 79 273 c43 149 81 280 84 290 4 14 -2 17 -36 17 -40 0
-42 -1 -52 -42 -23 -85 -111 -413 -116 -431 -3 -10 -8 -16 -11 -14 -2 3 -33
112 -67 243 l-63 239 -43 0 -43 0 -53 -205 c-63 -244 -74 -283 -79 -278 -2 2
-29 98 -60 213 -80 300 -69 275 -116 275 -21 0 -39 -1 -39 -2z"/>
<path d="M18230 1140 l0 -290 180 0 180 0 0 30 0 30 -145 0 -145 0 0 100 0
100 135 0 135 0 0 30 0 30 -135 0 -135 0 0 95 0 94 143 3 142 3 0 30 0 30
-177 3 -178 2 0 -290z"/>
<path d="M18710 1140 l0 -292 143 4 c156 4 202 17 240 69 49 68 26 174 -44
206 -43 20 -48 29 -19 38 10 3 31 20 45 36 20 25 25 41 25 88 0 48 -4 63 -25
85 -37 40 -68 47 -222 53 l-143 6 0 -293z m240 221 c82 -16 107 -91 51 -153
-29 -32 -31 -33 -125 -36 l-96 -4 0 101 0 101 63 0 c34 -1 82 -5 107 -9z m64
-280 c20 -19 26 -34 26 -66 0 -80 -44 -105 -182 -105 l-78 0 0 101 0 101 104
-4 c94 -3 107 -5 130 -27z"/>
<path d="M4950 1105 l0 -95 840 0 840 0 0 95 0 95 -840 0 -840 0 0 -95z"/>
</g>
</svg>
