<svg width="52" height="52" viewBox="0 0 52 52" fill="none" xmlns="http://www.w3.org/2000/svg"><g id="Icon_solarium"><path id="Vector" d="M38.9997 28.166C42.6108 28.166 49.833 30.3327 49.833 38.9993C49.833 47.666 42.6108 49.8327 38.9997 49.8327H12.9997C9.38849 49.8327 2.16634 47.666 2.16634 38.9993C2.16634 30.3327 9.38849 28.166 12.9997 28.166" stroke="#F5F1ED" stroke-width="1.08333" stroke-linecap="square" stroke-linejoin="round"/><path id="Vector_2" d="M26 26C22.41 26 19.5 23.09 19.5 19.5C19.5 15.9102 22.41 13 26 13C29.5899 13 32.5 15.9102 32.5 19.5C32.5 23.09 29.5899 26 26 26Z" stroke="#C08667" stroke-width="1.08333" stroke-linecap="square" stroke-linejoin="round"/><path id="Vector_3" d="M10.833 19.5H8.66634" stroke="#C08667" stroke-width="1.08333" stroke-linecap="square" stroke-linejoin="round"/><path id="Vector_4" d="M26 4.33268V2.16602" stroke="#C08667" stroke-width="1.08333" stroke-linecap="square" stroke-linejoin="round"/><path id="Vector_5" d="M11.9163 7.58398L14.083 9.75065" stroke="#C08667" stroke-width="1.08333" stroke-linecap="square" stroke-linejoin="round"/><path id="Vector_6" d="M40.083 7.58398L37.9163 9.75065" stroke="#C08667" stroke-width="1.08333" stroke-linecap="square" stroke-linejoin="round"/><path id="Vector_7" d="M43.333 19.5H41.1663" stroke="#C08667" stroke-width="1.08333" stroke-linecap="square" stroke-linejoin="round"/><circle id="Ellipse 1" cx="38" cy="28" r="3" transform="rotate(180 38 28)" fill="#F5F1ED"/><circle id="Ellipse 2" cx="14" cy="28" r="3" transform="rotate(180 14 28)" fill="#F5F1ED"/></g></svg>