<svg width="270" height="40" viewBox="0 0 98.2402 17.2988" fill="none" xmlns="http://www.w3.org/2000/svg" xmlns:xlink="http://www.w3.org/1999/xlink">
	<desc>
			Created with Pixso.
	</desc>
	<defs/>
	<path id="Equicore" d="M14.55 12.37Q15.82 12.95 17.36 12.95Q18.05 12.95 18.71 12.83Q19.78 13.53 20.91 14.14Q22.97 15.25 25.22 16.03Q28.82 17.29 32.24 17.29C33.09 17.29 33.9 17.21 34.68 17.03C34.7 17.02 34.7 16.98 34.68 16.91C34.66 16.85 34.64 16.82 34.59 16.83C34.26 16.9 33.88 16.93 33.43 16.93C30.94 16.93 28.57 16.41 26.32 15.37Q22.97 13.83 20.58 12.21Q20.71 12.14 20.84 12.07C21.92 11.49 22.78 10.69 23.42 9.67Q23.86 8.98 24.1 8.21Q24.38 7.32 24.38 6.33Q24.38 5.58 24.21 4.86Q24.02 4.02 23.6 3.23C23.09 2.26 22.36 1.48 21.4 0.89C20.44 0.29 19.32 -0.01 18.06 -0.01Q17.74 -0.01 17.43 0.02Q16.05 0.13 14.72 0.73Q14 1.06 13.39 1.54Q12.63 2.13 12.06 2.95Q11.91 3.16 11.78 3.38Q11.02 4.71 11.02 6.47Q11.02 7.67 11.37 8.74Q11.54 9.25 11.8 9.73Q12.19 10.46 12.73 11.04Q13.3 11.64 14.04 12.09Q14.29 12.24 14.55 12.37ZM56.29 0.17C55.64 0.05 55 -0.01 54.39 -0.01C53.11 -0.01 51.9 0.27 50.77 0.81C49.65 1.35 48.74 2.1 48.05 3.07Q47.69 3.59 47.45 4.16Q47.03 5.18 47.03 6.37Q47.03 7.01 47.14 7.61Q47.32 8.59 47.79 9.51C48.3 10.51 49.09 11.34 50.17 11.99C51.25 12.63 52.6 12.95 54.21 12.95C55.49 12.95 56.74 12.71 57.97 12.23Q58.15 12.15 58.19 12.09C58.23 12.04 58.26 11.93 58.29 11.77L58.57 9.37C58.57 9.36 58.55 9.35 58.51 9.33C58.48 9.31 58.46 9.29 58.43 9.29C58.36 9.29 58.33 9.31 58.33 9.35Q57.53 11.48 56.03 12.23Q55.22 12.63 54.21 12.63Q53.6 12.63 53.04 12.48Q52.22 12.27 51.49 11.73C50.68 11.12 50.03 10.29 49.55 9.25Q49.52 9.2 49.5 9.14Q48.85 7.62 48.85 5.83C48.85 4.77 49.04 3.83 49.41 3.01C49.8 2.2 50.35 1.57 51.07 1.13C51.79 0.68 52.64 0.45 53.61 0.45Q55.19 0.45 56.33 1.16Q56.39 1.2 56.45 1.23Q56.66 1.37 56.85 1.53Q57.72 2.27 58.15 3.53C58.16 3.59 58.2 3.61 58.27 3.59C58.34 3.58 58.37 3.55 58.37 3.51L58.15 1.11C58.12 0.97 58.09 0.87 58.05 0.81C58.02 0.75 57.96 0.69 57.85 0.63C57.46 0.43 56.94 0.28 56.29 0.17ZM63.95 12.37Q65.21 12.95 66.75 12.95C68 12.95 69.16 12.66 70.23 12.07C71.31 11.49 72.17 10.69 72.81 9.67C73.45 8.66 73.77 7.55 73.77 6.33C73.77 5.24 73.51 4.21 72.99 3.23C72.48 2.26 71.75 1.48 70.79 0.89C69.83 0.29 68.72 -0.01 67.45 -0.01Q67.13 -0.01 66.82 0.02Q65.45 0.13 64.11 0.73C63.03 1.23 62.14 1.97 61.45 2.95C60.76 3.93 60.41 5.1 60.41 6.47C60.41 7.65 60.67 8.73 61.19 9.73C61.72 10.72 62.47 11.51 63.43 12.09Q63.68 12.24 63.95 12.37ZM83.12 0.83C82.51 0.38 81.64 0.15 80.5 0.15C80.12 0.15 79.7 0.17 79.26 0.21C79.1 0.23 78.92 0.24 78.7 0.25C78.49 0.27 78.26 0.27 78.02 0.27C77.68 0.27 77.21 0.26 76.62 0.23L75.62 0.21C75.6 0.21 75.58 0.25 75.58 0.33C75.58 0.41 75.6 0.45 75.62 0.45C76.1 0.45 76.45 0.49 76.66 0.57C76.89 0.64 77.04 0.77 77.12 0.95Q77.24 1.23 77.24 1.83L77.24 11.09C77.24 11.49 77.2 11.79 77.12 11.99C77.04 12.18 76.89 12.31 76.66 12.37C76.44 12.44 76.08 12.47 75.6 12.47C75.56 12.47 75.54 12.51 75.54 12.59C75.54 12.67 75.56 12.71 75.6 12.71C76.03 12.71 76.37 12.71 76.62 12.69L78.02 12.67L79.46 12.69C79.7 12.71 80.03 12.71 80.44 12.71C80.48 12.71 80.5 12.67 80.5 12.59C80.5 12.51 80.48 12.47 80.44 12.47Q79.72 12.47 79.38 12.37C79.17 12.31 79.02 12.18 78.94 11.99C78.86 11.79 78.82 11.49 78.82 11.09L78.82 6.37C79.2 6.4 79.52 6.41 79.8 6.41C80.11 6.41 80.4 6.38 80.69 6.33C81.93 8.3 82.98 9.85 83.84 10.97Q85.18 12.71 85.68 12.71L88.54 12.71C88.58 12.71 88.6 12.67 88.6 12.59C88.6 12.51 88.58 12.47 88.54 12.47C87.98 12.47 87.4 12.26 86.8 11.83C86.2 11.39 85.52 10.69 84.74 9.73C84 8.79 83.09 7.49 82 5.83C82.6 5.49 83.08 5.05 83.44 4.51C83.84 3.94 84.04 3.33 84.04 2.67C84.04 1.89 83.74 1.27 83.12 0.83ZM0 12.59C0 12.67 0.02 12.71 0.06 12.71L8.58 12.71C8.7 12.71 8.78 12.69 8.82 12.65C8.86 12.6 8.88 12.52 8.88 12.41Q8.88 11.15 9.08 9.71C9.08 9.7 9.06 9.69 9.02 9.67C8.99 9.65 8.96 9.63 8.92 9.63Q8.85 9.63 8.84 9.66Q8.84 9.67 8.84 9.67C8.65 10.5 8.3 11.14 7.8 11.59C7.3 12.03 6.68 12.25 5.94 12.25L4.62 12.25Q3.8 12.25 3.52 11.99C3.34 11.82 3.26 11.49 3.26 11.01L3.26 6.43L5.42 6.43Q6.48 6.43 6.96 6.85C7.29 7.12 7.46 7.54 7.46 8.11Q7.46 8.12 7.46 8.12Q7.47 8.15 7.58 8.15C7.66 8.15 7.7 8.14 7.7 8.11C7.7 7.87 7.68 7.54 7.66 7.11L7.64 6.21L7.66 4.53Q7.66 4.53 7.65 4.53Q7.64 4.49 7.54 4.49C7.47 4.49 7.44 4.51 7.44 4.53Q7.44 5.09 7.17 5.43Q7.08 5.54 6.96 5.63C6.64 5.86 6.14 5.97 5.46 5.97L3.26 5.97L3.26 1.91C3.26 1.43 3.36 1.11 3.56 0.93C3.76 0.76 4.15 0.67 4.74 0.67L5.76 0.67Q6.63 0.67 7.22 1.08Q7.33 1.16 7.44 1.25Q7.46 1.28 7.48 1.3Q8.08 1.87 8.22 2.93C8.23 2.97 8.27 2.99 8.34 2.99Q8.44 2.98 8.45 2.93Q8.46 2.92 8.46 2.91L8.42 0.39Q8.42 0.31 8.38 0.27Q8.33 0.21 8.22 0.21L0.06 0.21C0.02 0.21 0 0.25 0 0.33Q0 0.43 0.03 0.45Q0.04 0.45 0.06 0.45Q0.78 0.45 1.1 0.57Q1.33 0.64 1.46 0.8Q1.52 0.87 1.56 0.95Q1.68 1.23 1.68 1.83L1.68 11.09C1.68 11.49 1.64 11.79 1.56 11.99C1.48 12.18 1.32 12.31 1.1 12.37C0.88 12.44 0.54 12.47 0.06 12.47Q0.04 12.47 0.03 12.48Q0 12.5 0 12.59ZM36.33 0.99C36.63 1.34 36.79 1.85 36.79 2.51L36.79 8.19C36.79 9.5 36.45 10.52 35.79 11.25C35.13 11.97 34.23 12.33 33.07 12.33C31.83 12.33 30.86 11.93 30.17 11.13Q29.15 9.91 29.15 7.55L29.15 1.87C29.15 1.47 29.19 1.18 29.27 0.99C29.35 0.79 29.49 0.65 29.71 0.57C29.93 0.49 30.28 0.45 30.75 0.45C30.79 0.45 30.81 0.41 30.81 0.33C30.81 0.25 30.79 0.21 30.75 0.21L29.77 0.23C29.21 0.26 28.73 0.27 28.35 0.27C28 0.27 27.53 0.26 26.95 0.23L25.95 0.21C25.91 0.21 25.89 0.25 25.89 0.33C25.89 0.41 25.91 0.45 25.95 0.45Q26.67 0.45 26.99 0.57Q27.23 0.64 27.36 0.8Q27.41 0.87 27.45 0.95C27.53 1.14 27.57 1.43 27.57 1.83L27.57 8.25C27.57 9.21 27.77 10.05 28.19 10.77Q28.44 11.21 28.79 11.57Q29.27 12.07 29.93 12.41C30.67 12.79 31.54 12.97 32.53 12.97Q34.26 12.97 35.44 12.17Q35.74 11.96 36.01 11.69C36.89 10.84 37.33 9.67 37.33 8.17L37.33 2.51C37.33 1.83 37.46 1.32 37.73 0.97Q37.84 0.84 37.98 0.73Q38.36 0.45 38.95 0.45C38.97 0.45 38.99 0.41 38.99 0.33C38.99 0.25 38.97 0.21 38.95 0.21L38.09 0.23C37.63 0.26 37.29 0.27 37.05 0.27C36.77 0.27 36.39 0.26 35.91 0.23L35.01 0.21C34.97 0.21 34.95 0.25 34.95 0.33Q34.95 0.43 34.99 0.45Q35 0.45 35.01 0.45C35.58 0.45 36.02 0.63 36.33 0.99ZM43.61 11.99C43.54 11.81 43.51 11.51 43.51 11.09L43.51 1.87C43.51 1.47 43.55 1.18 43.63 0.99C43.71 0.79 43.86 0.65 44.07 0.57C44.3 0.49 44.65 0.45 45.13 0.45C45.16 0.45 45.17 0.41 45.17 0.33C45.17 0.25 45.16 0.21 45.13 0.21L44.15 0.23C43.56 0.26 43.08 0.27 42.69 0.27C42.34 0.27 41.88 0.26 41.29 0.23L40.25 0.21C40.22 0.21 40.21 0.25 40.21 0.33C40.21 0.41 40.22 0.45 40.25 0.45Q40.97 0.45 41.31 0.57C41.54 0.64 41.69 0.77 41.77 0.95C41.86 1.14 41.91 1.43 41.91 1.83L41.91 11.09C41.91 11.49 41.86 11.79 41.77 11.99C41.69 12.18 41.54 12.31 41.31 12.37C41.08 12.44 40.73 12.47 40.25 12.47C40.22 12.47 40.21 12.51 40.21 12.59C40.21 12.67 40.22 12.71 40.25 12.71C40.69 12.71 41.04 12.71 41.29 12.69L42.69 12.67L44.13 12.69C44.37 12.71 44.7 12.71 45.13 12.71C45.16 12.71 45.17 12.67 45.17 12.59C45.17 12.51 45.16 12.47 45.13 12.47C44.64 12.47 44.28 12.44 44.05 12.37C43.84 12.31 43.69 12.18 43.61 11.99ZM89.16 12.59C89.16 12.67 89.18 12.71 89.22 12.71L97.74 12.71Q97.92 12.71 97.98 12.65C98.02 12.6 98.04 12.52 98.04 12.41Q98.04 11.15 98.24 9.71C98.24 9.7 98.22 9.69 98.18 9.67C98.15 9.65 98.12 9.63 98.08 9.63C98.02 9.63 98 9.65 98 9.67C97.81 10.5 97.46 11.14 96.96 11.59C96.46 12.03 95.84 12.25 95.1 12.25L93.78 12.25C93.23 12.25 92.86 12.17 92.68 11.99C92.5 11.82 92.42 11.49 92.42 11.01L92.42 6.43L94.58 6.43C95.28 6.43 95.8 6.57 96.12 6.85C96.45 7.12 96.62 7.54 96.62 8.11Q96.62 8.12 96.62 8.12Q96.63 8.15 96.74 8.15C96.82 8.15 96.86 8.14 96.86 8.11C96.86 7.87 96.84 7.54 96.82 7.11L96.8 6.21L96.82 4.53Q96.82 4.53 96.81 4.53Q96.8 4.49 96.7 4.49Q96.61 4.49 96.6 4.52Q96.6 4.53 96.6 4.53C96.6 5.03 96.44 5.39 96.12 5.63C95.8 5.86 95.3 5.97 94.62 5.97L92.42 5.97L92.42 1.91C92.42 1.43 92.52 1.11 92.72 0.93C92.92 0.76 93.31 0.67 93.9 0.67L94.92 0.67C95.61 0.67 96.17 0.87 96.6 1.25Q96.62 1.28 96.64 1.3Q97.24 1.87 97.38 2.93C97.39 2.97 97.43 2.99 97.5 2.99Q97.6 2.98 97.61 2.93Q97.62 2.92 97.62 2.91L97.58 0.39Q97.58 0.31 97.54 0.27Q97.49 0.21 97.38 0.21L89.22 0.21C89.18 0.21 89.16 0.25 89.16 0.33C89.16 0.41 89.18 0.45 89.22 0.45C89.7 0.45 90.04 0.49 90.26 0.57C90.48 0.64 90.64 0.77 90.72 0.95Q90.84 1.23 90.84 1.83L90.84 11.09C90.84 11.49 90.8 11.79 90.72 11.99C90.64 12.18 90.48 12.31 90.26 12.37C90.04 12.44 89.7 12.47 89.22 12.47C89.18 12.47 89.16 12.51 89.16 12.59ZM20.36 11.85C19.68 12.29 18.91 12.51 18.06 12.51Q17.21 12.51 16.47 12.24Q15.87 12.03 15.34 11.63C14.55 11.05 13.94 10.24 13.5 9.21Q12.84 7.67 12.84 5.77Q12.84 3.29 14 1.89Q14.38 1.42 14.87 1.11Q15.84 0.47 17.24 0.47C18.3 0.47 19.24 0.75 20.04 1.29C20.85 1.84 21.47 2.6 21.9 3.57C22.34 4.55 22.56 5.65 22.56 6.89C22.56 8.07 22.36 9.08 21.96 9.93C21.57 10.77 21.04 11.41 20.36 11.85ZM69.75 11.85C69.07 12.29 68.3 12.51 67.45 12.51C66.44 12.51 65.53 12.22 64.73 11.63C63.94 11.05 63.33 10.24 62.89 9.21C62.45 8.19 62.23 7.04 62.23 5.77C62.23 4.12 62.62 2.83 63.39 1.89C64.16 0.95 65.24 0.47 66.63 0.47C67.7 0.47 68.63 0.75 69.43 1.29C70.24 1.84 70.86 2.6 71.29 3.57Q71.95 5.03 71.95 6.89C71.95 8.07 71.75 9.08 71.35 9.93C70.96 10.77 70.43 11.41 69.75 11.85ZM81.78 1.15C82.18 1.59 82.38 2.34 82.38 3.39C82.38 4.33 82.2 4.99 81.82 5.37Q81.28 5.93 80 5.93Q79.58 5.93 78.82 5.85L78.82 1.87C78.82 1.47 78.86 1.18 78.94 0.99C79.02 0.79 79.15 0.66 79.32 0.59C79.51 0.53 79.78 0.49 80.12 0.49C80.83 0.49 81.38 0.71 81.78 1.15Z" fill="#F5F1ED" fill-opacity="1.000000" fill-rule="evenodd"/>
</svg>
