<svg width="52" height="52" viewBox="0 0 52 52" fill="none" xmlns="http://www.w3.org/2000/svg">
<g id="Icon_boxes">
<path id="Vector" d="M6.5 18.5V41.1667C6.5 43.56 8.4401 45.5 10.8333 45.5H41.1667C43.56 45.5 45.5 43.56 45.5 41.1667V18.5" stroke="#2B180D" stroke-width="1.08333"/>
<path id="Vector_2" d="M44.384 6.5H35.7354L36.8187 17.3333C36.8187 17.3333 38.9854 19.5 42.2354 19.5C44.5689 19.5 46.1577 18.383 46.8683 17.753C47.1515 17.5019 47.2551 17.1186 47.1929 16.7453L45.6663 7.58628C45.5618 6.95944 45.0195 6.5 44.384 6.5Z" stroke="#AB5E34" stroke-width="1.08333"/>
<path id="Vector_3" d="M35.7353 6.5L36.8187 17.3333C36.8187 17.3333 34.652 19.5 31.402 19.5C28.152 19.5 25.9854 17.3333 25.9854 17.3333V6.5H35.7353Z" stroke="#AB5E34" stroke-width="1.08333"/>
<path id="Vector_4" d="M25.9857 6.5V17.3333C25.9857 17.3333 23.819 19.5 20.569 19.5C17.319 19.5 15.1523 17.3333 15.1523 17.3333L16.2357 6.5H25.9857Z" stroke="#AB5E34" stroke-width="1.08333"/>
<path id="Vector_5" d="M16.2357 6.5H7.58698C6.95149 6.5 6.40915 6.95944 6.30468 7.58628L4.77815 16.7453C4.71595 17.1186 4.81958 17.5019 5.10276 17.753C5.81326 18.383 7.40212 19.5 9.73568 19.5C12.9857 19.5 15.1524 17.3333 15.1524 17.3333L16.2357 6.5Z" stroke="#AB5E34" stroke-width="1.08333"/>
<path id="Vector_6" d="M33 46V32.5C33 30.0147 30.9107 28 28.3333 28H23.6667C21.0893 28 19 30.0147 19 32.5V46" stroke="#2B180D" stroke-width="1.08333" stroke-miterlimit="16"/>
<circle id="Ellipse 1" cx="26" cy="28" r="3" fill="#2B180D"/>
</g>
</svg>
