<?xml version="1.0" encoding="UTF-8"?> <svg xmlns="http://www.w3.org/2000/svg" width="52" height="52" viewBox="0 0 52 52" fill="none"><g id="Icon_loung"><path id="Vector" d="M4.33301 34.666V41.166" stroke="#2B180D" stroke-width="1.08333" stroke-linecap="round" stroke-linejoin="round"></path><path id="Vector_2" d="M26 28.1673V15.1673C26 12.7741 27.94 10.834 30.3333 10.834H39C41.3933 10.834 43.3333 12.7741 43.3333 15.1673V19.5007" stroke="#AB5E34" stroke-width="1.08333" stroke-linecap="round" stroke-linejoin="round"></path><path id="Vector_3" d="M26.0003 28.1673V15.1673C26.0003 12.7741 24.0603 10.834 21.667 10.834H13.0003C10.6071 10.834 8.66699 12.7741 8.66699 15.1673V19.5007" stroke="#AB5E34" stroke-width="1.08333" stroke-linecap="round" stroke-linejoin="round"></path><path id="Vector_4" d="M43.333 19.5C40.9397 19.5 38.9997 21.4401 38.9997 23.8333V28.1667H12.9997V23.8333C12.9997 21.4401 11.0596 19.5 8.66634 19.5C6.27311 19.5 4.33301 21.4401 4.33301 23.8333V36.8333H47.6663V23.8333C47.6663 21.4401 45.7263 19.5 43.333 19.5Z" stroke="#2B180D" stroke-width="1.08333" stroke-linecap="round" stroke-linejoin="round"></path><path id="Vector_5" d="M47.667 34.666V41.166" stroke="#2B180D" stroke-width="1.08333" stroke-linecap="round" stroke-linejoin="round"></path><circle id="Ellipse 2" cx="4" cy="40" r="3" fill="#2B180D"></circle><circle id="Ellipse 4" cx="48" cy="40" r="3" fill="#2B180D"></circle></g></svg> 