<?xml version="1.0" encoding="UTF-8"?> <svg xmlns="http://www.w3.org/2000/svg" width="52" height="52" viewBox="0 0 52 52" fill="none"><path d="M45.4998 8.6673L45.5 43.334C45.5 45.7273 43.56 47.6673 41.1667 47.6673H10.8333C8.4401 47.6673 6.5 45.7273 6.5 43.334V8.66732C6.5 6.27408 8.4401 4.33398 10.8333 4.33398H41.1665C43.5598 4.33398 45.4998 6.27408 45.4998 8.6673Z" stroke="#2B180D" stroke-width="1.08333" stroke-linecap="round" stroke-linejoin="round"></path><circle cx="39" cy="11" r="3" fill="#AB5E34"></circle><path d="M26 41.166C33.1797 41.166 39 35.3457 39 28.166C39 20.9863 33.1797 15.166 26 15.166C18.8203 15.166 13 20.9863 13 28.166C13 35.3457 18.8203 41.166 26 41.166Z" stroke="#2B180D" stroke-width="1.08333" stroke-linecap="round" stroke-linejoin="round"></path><path d="M26 34.666C22.4101 34.666 19.5 31.756 19.5 28.166" stroke="#2B180D" stroke-width="1.08333" stroke-linecap="square" stroke-linejoin="round"></path></svg> 