<?xml version="1.0" encoding="UTF-8"?> <svg xmlns="http://www.w3.org/2000/svg" width="52" height="52" viewBox="0 0 52 52" fill="none"><path d="M18.4166 31.416L10.8333 47.666" stroke="#AB5E34" stroke-width="1.08333" stroke-linecap="square" stroke-linejoin="round"></path><path d="M17.3333 13.0007C17.3333 13.0007 19.4999 10.7012 19.4999 8.66732C19.4999 5.77844 17.3333 4.33398 17.3333 4.33398" stroke="#2B180D" stroke-width="1.08333" stroke-linecap="square" stroke-linejoin="round"></path><path d="M26 13.0007C26 13.0007 28.1667 10.7012 28.1667 8.66732C28.1667 5.77844 26 4.33398 26 4.33398" stroke="#2B180D" stroke-width="1.08333" stroke-linecap="square" stroke-linejoin="round"></path><path d="M34.6667 13.0007C34.6667 13.0007 36.8334 10.7012 36.8334 8.66732C36.8334 5.77844 34.6667 4.33398 34.6667 4.33398" stroke="#2B180D" stroke-width="1.08333" stroke-linecap="square" stroke-linejoin="round"></path><path d="M35.75 37.916H16.25" stroke="#AB5E34" stroke-width="1.08333" stroke-linejoin="round"></path><path d="M33.5833 31.416L38.1333 41.166" stroke="#AB5E34" stroke-width="1.08333" stroke-linecap="square" stroke-linejoin="round"></path><circle cx="40" cy="45" r="3" fill="#AB5E34"></circle><path d="M25.9999 32.5007C33.9386 32.5007 40.4526 26.4015 41.1117 18.6334C41.1724 17.918 40.5846 17.334 39.8666 17.334H12.1332C11.4153 17.334 10.8274 17.918 10.8881 18.6334C11.5472 26.4015 18.0613 32.5007 25.9999 32.5007Z" stroke="#2B180D" stroke-width="1.08333"></path></svg> 